<svg width="872" height="20" viewBox="0 0 872 20" fill="none" xmlns="http://www.w3.org/2000/svg">
<rect x="0.75" y="0.75" width="870.5" height="18.5" rx="7.25" fill="#E8E6E6" stroke="#C4C4C4" stroke-width="1.5"/>
<path d="M573 8.00055C573 3.58227 576.582 0 581 0H596C600.418 0 604 3.58227 604 8.00055C604 9.34532 604 10.6547 604 11.9995C604 16.4177 600.418 20 596 20H581C576.582 20 573 16.4177 573 11.9995C573 10.6547 573 9.34532 573 8.00055Z" fill="#353535"/>
<rect x="284" width="300" height="20" rx="8" fill="#EABF49"/>
<rect width="300" height="20" rx="8" fill="#EABF49"/>
<path d="M289 8.00055C289 3.58227 292.582 0 297 0H305C309.418 0 313 3.58227 313 8.00055C313 9.34532 313 10.6547 313 11.9995C313 16.4177 309.418 20 305 20H297C292.582 20 289 16.4177 289 11.9995C289 10.6547 289 9.34532 289 8.00055Z" fill="#215026"/>
<path d="M133.205 10.168H132.168V14H131.043V5.46875H132.168V9.23047H133.047L136.029 5.46875H137.43L134.172 9.60547L137.67 14H136.293L133.205 10.168ZM138.08 10.7715C138.08 10.1504 138.201 9.5918 138.443 9.0957C138.689 8.59961 139.029 8.2168 139.463 7.94727C139.9 7.67773 140.398 7.54297 140.957 7.54297C141.82 7.54297 142.518 7.8418 143.049 8.43945C143.584 9.03711 143.852 9.83203 143.852 10.8242V10.9004C143.852 11.5176 143.732 12.0723 143.494 12.5645C143.26 13.0527 142.922 13.4336 142.48 13.707C142.043 13.9805 141.539 14.1172 140.969 14.1172C140.109 14.1172 139.412 13.8184 138.877 13.2207C138.346 12.623 138.08 11.832 138.08 10.8477V10.7715ZM139.17 10.9004C139.17 11.6035 139.332 12.168 139.656 12.5938C139.984 13.0195 140.422 13.2324 140.969 13.2324C141.52 13.2324 141.957 13.0176 142.281 12.5879C142.605 12.1543 142.768 11.5488 142.768 10.7715C142.768 10.0762 142.602 9.51367 142.27 9.08398C141.941 8.65039 141.504 8.43359 140.957 8.43359C140.422 8.43359 139.99 8.64648 139.662 9.07227C139.334 9.49805 139.17 10.1074 139.17 10.9004ZM150.566 10.9004C150.566 11.8652 150.346 12.6426 149.904 13.2324C149.463 13.8223 148.865 14.1172 148.111 14.1172C147.342 14.1172 146.736 13.873 146.295 13.3848V16.4375H145.211V7.66016H146.201L146.254 8.36328C146.695 7.81641 147.309 7.54297 148.094 7.54297C148.855 7.54297 149.457 7.83008 149.898 8.4043C150.344 8.97852 150.566 9.77734 150.566 10.8008V10.9004ZM149.482 10.7773C149.482 10.0625 149.33 9.49805 149.025 9.08398C148.721 8.66992 148.303 8.46289 147.771 8.46289C147.115 8.46289 146.623 8.75391 146.295 9.33594V12.3652C146.619 12.9434 147.115 13.2324 147.783 13.2324C148.303 13.2324 148.715 13.0273 149.02 12.6172C149.328 12.2031 149.482 11.5898 149.482 10.7773ZM155.436 9.39453C155.436 9.09766 155.322 8.86328 155.096 8.69141C154.869 8.51562 154.559 8.42773 154.164 8.42773C153.781 8.42773 153.461 8.52734 153.203 8.72656C152.949 8.92578 152.822 9.16016 152.822 9.42969H151.744C151.744 8.87891 151.975 8.42773 152.436 8.07617C152.896 7.72461 153.473 7.54883 154.164 7.54883C154.906 7.54883 155.484 7.70898 155.898 8.0293C156.312 8.3457 156.52 8.79883 156.52 9.38867C156.52 9.67383 156.434 9.93555 156.262 10.1738C156.09 10.4121 155.846 10.6016 155.529 10.7422C156.268 10.9922 156.637 11.4844 156.637 12.2188C156.637 12.8008 156.412 13.2617 155.963 13.6016C155.514 13.9414 154.914 14.1113 154.164 14.1113C153.434 14.1113 152.83 13.9336 152.354 13.5781C151.881 13.2188 151.645 12.7344 151.645 12.125H152.723C152.723 12.4336 152.859 12.6992 153.133 12.9219C153.41 13.1406 153.754 13.25 154.164 13.25C154.578 13.25 154.912 13.1543 155.166 12.9629C155.42 12.7715 155.547 12.5234 155.547 12.2188C155.547 11.8633 155.439 11.6094 155.225 11.457C155.014 11.3008 154.684 11.2227 154.234 11.2227H153.15V10.3086H154.328C155.066 10.2891 155.436 9.98438 155.436 9.39453ZM162.145 7.66016H163.229V14H162.145V9.37695L159.221 14H158.137V7.66016H159.221V12.2891L162.145 7.66016ZM170.148 14H169.064V11.293H166.152V14H165.062V7.66016H166.152V10.4082H169.064V7.66016H170.148V14ZM175.809 14C175.746 13.875 175.695 13.6523 175.656 13.332C175.152 13.8555 174.551 14.1172 173.852 14.1172C173.227 14.1172 172.713 13.9414 172.311 13.5898C171.912 13.2344 171.713 12.7852 171.713 12.2422C171.713 11.582 171.963 11.0703 172.463 10.707C172.967 10.3398 173.674 10.1562 174.584 10.1562H175.639V9.6582C175.639 9.2793 175.525 8.97852 175.299 8.75586C175.072 8.5293 174.738 8.41602 174.297 8.41602C173.91 8.41602 173.586 8.51367 173.324 8.70898C173.062 8.9043 172.932 9.14062 172.932 9.41797H171.842C171.842 9.10156 171.953 8.79688 172.176 8.50391C172.402 8.20703 172.707 7.97266 173.09 7.80078C173.477 7.62891 173.9 7.54297 174.361 7.54297C175.092 7.54297 175.664 7.72656 176.078 8.09375C176.492 8.45703 176.707 8.95898 176.723 9.59961V12.5176C176.723 13.0996 176.797 13.5625 176.945 13.9062V14H175.809ZM174.01 13.1738C174.35 13.1738 174.672 13.0859 174.977 12.9102C175.281 12.7344 175.502 12.5059 175.639 12.2246V10.9238H174.789C173.461 10.9238 172.797 11.3125 172.797 12.0898C172.797 12.4297 172.91 12.6953 173.137 12.8867C173.363 13.0781 173.654 13.1738 174.01 13.1738Z" fill="#353535"/>
<path d="M426.77 9.92773C426.77 10.7676 426.621 11.5039 426.324 12.1367C426.027 12.7695 425.602 13.2578 425.047 13.6016C424.496 13.9453 423.863 14.1172 423.148 14.1172C422.441 14.1172 421.811 13.9473 421.256 13.6074C420.701 13.2676 420.271 12.7832 419.967 12.1543C419.662 11.5215 419.508 10.7949 419.504 9.97461V9.55273C419.504 8.71289 419.654 7.97461 419.955 7.33789C420.26 6.69727 420.688 6.20703 421.238 5.86719C421.793 5.52344 422.426 5.35156 423.137 5.35156C423.848 5.35156 424.479 5.52344 425.029 5.86719C425.584 6.20703 426.012 6.69727 426.312 7.33789C426.617 7.97461 426.77 8.71094 426.77 9.54688V9.92773ZM424.988 9.54102C424.988 8.64648 424.828 7.9668 424.508 7.50195C424.188 7.03711 423.73 6.80469 423.137 6.80469C422.547 6.80469 422.092 7.03516 421.771 7.49609C421.451 7.95312 421.289 8.625 421.285 9.51172V9.92773C421.285 10.7988 421.445 11.4746 421.766 11.9551C422.086 12.4355 422.547 12.6758 423.148 12.6758C423.738 12.6758 424.191 12.4453 424.508 11.9844C424.824 11.5195 424.984 10.8438 424.988 9.95703V9.54102ZM427.684 10.877C427.684 9.85742 427.891 9.04688 428.305 8.44531C428.723 7.84375 429.297 7.54297 430.027 7.54297C430.312 7.54297 430.572 7.59961 430.807 7.71289V5H432.5V7.71875C432.742 7.60156 433.01 7.54297 433.303 7.54297C434.037 7.54297 434.611 7.84375 435.025 8.44531C435.443 9.04297 435.652 9.89453 435.652 11C435.652 11.957 435.443 12.7168 435.025 13.2793C434.607 13.8379 434.037 14.1172 433.314 14.1172C433.014 14.1172 432.742 14.0625 432.5 13.9531V16.4375H430.807V13.959C430.572 14.0645 430.309 14.1172 430.016 14.1172C429.332 14.1172 428.783 13.8613 428.369 13.3496C427.955 12.8379 427.729 12.1367 427.689 11.2461L427.684 10.877ZM433.953 10.877C433.953 10.2441 433.857 9.75977 433.666 9.42383C433.475 9.08398 433.205 8.91406 432.857 8.91406C432.748 8.91406 432.629 8.92773 432.5 8.95508V12.7227C432.609 12.7461 432.732 12.7578 432.869 12.7578C433.533 12.7578 433.893 12.2539 433.947 11.2461L433.953 10.877ZM429.377 11C429.377 12.168 429.734 12.752 430.449 12.752C430.598 12.752 430.717 12.7422 430.807 12.7227V8.95508C430.678 8.92773 430.562 8.91406 430.461 8.91406C430.113 8.91406 429.846 9.08008 429.658 9.41211C429.471 9.74023 429.377 10.2695 429.377 11ZM436.438 10.7715C436.438 10.1426 436.559 9.58203 436.801 9.08984C437.043 8.59766 437.391 8.2168 437.844 7.94727C438.301 7.67773 438.83 7.54297 439.432 7.54297C440.287 7.54297 440.984 7.80469 441.523 8.32812C442.066 8.85156 442.369 9.5625 442.432 10.4609L442.443 10.8945C442.443 11.8672 442.172 12.6484 441.629 13.2383C441.086 13.8242 440.357 14.1172 439.443 14.1172C438.529 14.1172 437.799 13.8242 437.252 13.2383C436.709 12.6523 436.438 11.8555 436.438 10.8477V10.7715ZM438.131 10.8945C438.131 11.4961 438.244 11.957 438.471 12.2773C438.697 12.5938 439.021 12.752 439.443 12.752C439.854 12.752 440.174 12.5957 440.404 12.2832C440.635 11.9668 440.75 11.4629 440.75 10.7715C440.75 10.1816 440.635 9.72461 440.404 9.40039C440.174 9.07617 439.85 8.91406 439.432 8.91406C439.018 8.91406 438.697 9.07617 438.471 9.40039C438.244 9.7207 438.131 10.2188 438.131 10.8945ZM449.193 10.8887C449.193 11.8652 448.971 12.6484 448.525 13.2383C448.084 13.8242 447.486 14.1172 446.732 14.1172C446.092 14.1172 445.574 13.8945 445.18 13.4492V16.4375H443.486V7.66016H445.057L445.115 8.28125C445.525 7.78906 446.061 7.54297 446.721 7.54297C447.502 7.54297 448.109 7.83203 448.543 8.41016C448.977 8.98828 449.193 9.78516 449.193 10.8008V10.8887ZM447.5 10.7656C447.5 10.1758 447.395 9.7207 447.184 9.40039C446.977 9.08008 446.674 8.91992 446.275 8.91992C445.744 8.91992 445.379 9.12305 445.18 9.5293V12.125C445.387 12.543 445.756 12.752 446.287 12.752C447.096 12.752 447.5 12.0898 447.5 10.7656ZM454.109 12.002L455.768 7.66016H457.889V14H456.195V10.1094L454.678 14H453.541L452.053 10.1738V14H450.359V7.66016H452.463L454.109 12.002ZM464.879 7.66016V14H463.186V9.03125H461.691L461.586 10.9883C461.52 12.0312 461.314 12.791 460.971 13.2676C460.627 13.7441 460.115 13.9883 459.436 14H458.861L458.844 12.623L459.055 12.6055C459.359 12.582 459.582 12.4023 459.723 12.0664C459.863 11.7305 459.951 11.1582 459.986 10.3496L460.104 7.66016H464.879ZM469.104 14.1172C468.174 14.1172 467.416 13.832 466.83 13.2617C466.248 12.6914 465.957 11.9316 465.957 10.9824V10.8184C465.957 10.1816 466.08 9.61328 466.326 9.11328C466.572 8.60938 466.92 8.22266 467.369 7.95312C467.822 7.67969 468.338 7.54297 468.916 7.54297C469.783 7.54297 470.465 7.81641 470.961 8.36328C471.461 8.91016 471.711 9.68555 471.711 10.6895V11.3809H467.674C467.729 11.7949 467.893 12.127 468.166 12.377C468.443 12.627 468.793 12.752 469.215 12.752C469.867 12.752 470.377 12.5156 470.744 12.043L471.576 12.9746C471.322 13.334 470.979 13.6152 470.545 13.8184C470.111 14.0176 469.631 14.1172 469.104 14.1172ZM468.91 8.91406C468.574 8.91406 468.301 9.02734 468.09 9.25391C467.883 9.48047 467.75 9.80469 467.691 10.2266H470.047V10.0918C470.039 9.7168 469.938 9.42773 469.742 9.22461C469.547 9.01758 469.27 8.91406 468.91 8.91406ZM478.174 14H476.475V11.5625H474.371V14H472.678V7.66016H474.371V10.2031H476.475V7.66016H478.174V14ZM483.307 7.66016H485V14H483.307V10.0859L481.186 14H479.486V7.66016H481.186V11.5684L483.307 7.66016ZM489.213 14.1172C488.283 14.1172 487.525 13.832 486.939 13.2617C486.357 12.6914 486.066 11.9316 486.066 10.9824V10.8184C486.066 10.1816 486.189 9.61328 486.436 9.11328C486.682 8.60938 487.029 8.22266 487.479 7.95312C487.932 7.67969 488.447 7.54297 489.025 7.54297C489.893 7.54297 490.574 7.81641 491.07 8.36328C491.57 8.91016 491.82 9.68555 491.82 10.6895V11.3809H487.783C487.838 11.7949 488.002 12.127 488.275 12.377C488.553 12.627 488.902 12.752 489.324 12.752C489.977 12.752 490.486 12.5156 490.854 12.043L491.686 12.9746C491.432 13.334 491.088 13.6152 490.654 13.8184C490.221 14.0176 489.74 14.1172 489.213 14.1172ZM489.02 8.91406C488.684 8.91406 488.41 9.02734 488.199 9.25391C487.992 9.48047 487.859 9.80469 487.801 10.2266H490.156V10.0918C490.148 9.7168 490.047 9.42773 489.852 9.22461C489.656 9.01758 489.379 8.91406 489.02 8.91406Z" fill="#353535"/>
<path d="M723.266 11.293C723.16 12.1953 722.826 12.8926 722.264 13.3848C721.705 13.873 720.961 14.1172 720.031 14.1172C719.023 14.1172 718.215 13.7559 717.605 13.0332C717 12.3105 716.697 11.3438 716.697 10.1328V9.3125C716.697 8.51953 716.838 7.82227 717.119 7.2207C717.404 6.61914 717.807 6.1582 718.326 5.83789C718.846 5.51367 719.447 5.35156 720.131 5.35156C721.037 5.35156 721.764 5.60547 722.311 6.11328C722.857 6.61719 723.176 7.31641 723.266 8.21094H722.135C722.037 7.53125 721.824 7.03906 721.496 6.73438C721.172 6.42969 720.717 6.27734 720.131 6.27734C719.412 6.27734 718.848 6.54297 718.438 7.07422C718.031 7.60547 717.828 8.36133 717.828 9.3418V10.168C717.828 11.0938 718.021 11.8301 718.408 12.377C718.795 12.9238 719.336 13.1973 720.031 13.1973C720.656 13.1973 721.135 13.0566 721.467 12.7754C721.803 12.4902 722.025 11.9961 722.135 11.293H723.266ZM729.822 14H728.738V8.55664H725.82V14H724.73V7.66016H729.822V14ZM735.477 14C735.414 13.875 735.363 13.6523 735.324 13.332C734.82 13.8555 734.219 14.1172 733.52 14.1172C732.895 14.1172 732.381 13.9414 731.979 13.5898C731.58 13.2344 731.381 12.7852 731.381 12.2422C731.381 11.582 731.631 11.0703 732.131 10.707C732.635 10.3398 733.342 10.1562 734.252 10.1562H735.307V9.6582C735.307 9.2793 735.193 8.97852 734.967 8.75586C734.74 8.5293 734.406 8.41602 733.965 8.41602C733.578 8.41602 733.254 8.51367 732.992 8.70898C732.73 8.9043 732.6 9.14062 732.6 9.41797H731.51C731.51 9.10156 731.621 8.79688 731.844 8.50391C732.07 8.20703 732.375 7.97266 732.758 7.80078C733.145 7.62891 733.568 7.54297 734.029 7.54297C734.76 7.54297 735.332 7.72656 735.746 8.09375C736.16 8.45703 736.375 8.95898 736.391 9.59961V12.5176C736.391 13.0996 736.465 13.5625 736.613 13.9062V14H735.477ZM733.678 13.1738C734.018 13.1738 734.34 13.0859 734.645 12.9102C734.949 12.7344 735.17 12.5059 735.307 12.2246V10.9238H734.457C733.129 10.9238 732.465 11.3125 732.465 12.0898C732.465 12.4297 732.578 12.6953 732.805 12.8867C733.031 13.0781 733.322 13.1738 733.678 13.1738ZM740.633 13.2324C741.02 13.2324 741.357 13.1152 741.646 12.8809C741.936 12.6465 742.096 12.3535 742.127 12.002H743.152C743.133 12.3652 743.008 12.7109 742.777 13.0391C742.547 13.3672 742.238 13.6289 741.852 13.8242C741.469 14.0195 741.062 14.1172 740.633 14.1172C739.77 14.1172 739.082 13.8301 738.57 13.2559C738.062 12.6777 737.809 11.8887 737.809 10.8887V10.707C737.809 10.0898 737.922 9.54102 738.148 9.06055C738.375 8.58008 738.699 8.20703 739.121 7.94141C739.547 7.67578 740.049 7.54297 740.627 7.54297C741.338 7.54297 741.928 7.75586 742.396 8.18164C742.869 8.60742 743.121 9.16016 743.152 9.83984H742.127C742.096 9.42969 741.939 9.09375 741.658 8.83203C741.381 8.56641 741.037 8.43359 740.627 8.43359C740.076 8.43359 739.648 8.63281 739.344 9.03125C739.043 9.42578 738.893 9.99805 738.893 10.748V10.9531C738.893 11.6836 739.043 12.2461 739.344 12.6406C739.645 13.0352 740.074 13.2324 740.633 13.2324ZM748.473 7.66016H749.557V14H748.473V9.37695L745.549 14H744.465V7.66016H745.549V12.2891L748.473 7.66016ZM754.08 8.02344C754.877 8.02344 755.514 8.29102 755.99 8.82617C756.471 9.35742 756.711 10.0586 756.711 10.9297V11.0293C756.711 11.627 756.596 12.1621 756.365 12.6348C756.135 13.1035 755.803 13.4688 755.369 13.7305C754.939 13.9883 754.443 14.1172 753.881 14.1172C753.029 14.1172 752.344 13.834 751.824 13.2676C751.305 12.6973 751.045 11.9336 751.045 10.9766V10.4492C751.045 9.11719 751.291 8.05859 751.783 7.27344C752.279 6.48828 753.01 6.00977 753.975 5.83789C754.521 5.74023 754.891 5.62109 755.082 5.48047C755.273 5.33984 755.369 5.14648 755.369 4.90039H756.26C756.26 5.38867 756.148 5.76953 755.926 6.04297C755.707 6.31641 755.355 6.50977 754.871 6.62305L754.062 6.80469C753.418 6.95703 752.934 7.21484 752.609 7.57812C752.289 7.9375 752.08 8.41797 751.982 9.01953C752.557 8.35547 753.256 8.02344 754.08 8.02344ZM753.869 8.91406C753.338 8.91406 752.916 9.09375 752.604 9.45312C752.291 9.80859 752.135 10.3027 752.135 10.9355V11.0293C752.135 11.709 752.291 12.248 752.604 12.6465C752.92 13.041 753.346 13.2383 753.881 13.2383C754.42 13.2383 754.846 13.0391 755.158 12.6406C755.471 12.2422 755.627 11.6602 755.627 10.8945C755.627 10.2969 755.469 9.81836 755.152 9.45898C754.84 9.0957 754.412 8.91406 753.869 8.91406ZM757.643 10.7715C757.643 10.1504 757.764 9.5918 758.006 9.0957C758.252 8.59961 758.592 8.2168 759.025 7.94727C759.463 7.67773 759.961 7.54297 760.52 7.54297C761.383 7.54297 762.08 7.8418 762.611 8.43945C763.146 9.03711 763.414 9.83203 763.414 10.8242V10.9004C763.414 11.5176 763.295 12.0723 763.057 12.5645C762.822 13.0527 762.484 13.4336 762.043 13.707C761.605 13.9805 761.102 14.1172 760.531 14.1172C759.672 14.1172 758.975 13.8184 758.439 13.2207C757.908 12.623 757.643 11.832 757.643 10.8477V10.7715ZM758.732 10.9004C758.732 11.6035 758.895 12.168 759.219 12.5938C759.547 13.0195 759.984 13.2324 760.531 13.2324C761.082 13.2324 761.52 13.0176 761.844 12.5879C762.168 12.1543 762.33 11.5488 762.33 10.7715C762.33 10.0762 762.164 9.51367 761.832 9.08398C761.504 8.65039 761.066 8.43359 760.52 8.43359C759.984 8.43359 759.553 8.64648 759.225 9.07227C758.896 9.49805 758.732 10.1074 758.732 10.9004ZM765.986 11.5918H765.008L764.932 5.46875H766.068L765.986 11.5918ZM764.891 13.4551C764.891 13.2793 764.943 13.1328 765.049 13.0156C765.158 12.8945 765.318 12.834 765.529 12.834C765.74 12.834 765.9 12.8945 766.01 13.0156C766.119 13.1328 766.174 13.2793 766.174 13.4551C766.174 13.6309 766.119 13.7773 766.01 13.8945C765.9 14.0078 765.74 14.0645 765.529 14.0645C765.318 14.0645 765.158 14.0078 765.049 13.8945C764.943 13.7773 764.891 13.6309 764.891 13.4551Z" fill="#353535"/>
<rect width="24" height="20" rx="8" fill="#215026"/>
<path d="M12.6934 14H11V7.47266L8.97852 8.09961V6.72266L12.5117 5.45703H12.6934V14Z" fill="white"/>
<path d="M304.428 14H298.58V12.8398L301.34 9.89844C301.719 9.48438 301.998 9.12305 302.178 8.81445C302.361 8.50586 302.453 8.21289 302.453 7.93555C302.453 7.55664 302.357 7.25977 302.166 7.04492C301.975 6.82617 301.701 6.7168 301.346 6.7168C300.963 6.7168 300.66 6.84961 300.438 7.11523C300.219 7.37695 300.109 7.72266 300.109 8.15234H298.41C298.41 7.63281 298.533 7.1582 298.779 6.72852C299.029 6.29883 299.381 5.96289 299.834 5.7207C300.287 5.47461 300.801 5.35156 301.375 5.35156C302.254 5.35156 302.936 5.5625 303.42 5.98438C303.908 6.40625 304.152 7.00195 304.152 7.77148C304.152 8.19336 304.043 8.62305 303.824 9.06055C303.605 9.49805 303.23 10.0078 302.699 10.5898L300.76 12.6348H304.428V14Z" fill="white"/>
<path d="M590.303 8.98438H591.205C591.635 8.98438 591.953 8.87695 592.16 8.66211C592.367 8.44727 592.471 8.16211 592.471 7.80664C592.471 7.46289 592.367 7.19531 592.16 7.00391C591.957 6.8125 591.676 6.7168 591.316 6.7168C590.992 6.7168 590.721 6.80664 590.502 6.98633C590.283 7.16211 590.174 7.39258 590.174 7.67773H588.48C588.48 7.23242 588.6 6.83398 588.838 6.48242C589.08 6.12695 589.416 5.84961 589.846 5.65039C590.279 5.45117 590.756 5.35156 591.275 5.35156C592.178 5.35156 592.885 5.56836 593.396 6.00195C593.908 6.43164 594.164 7.02539 594.164 7.7832C594.164 8.17383 594.045 8.5332 593.807 8.86133C593.568 9.18945 593.256 9.44141 592.869 9.61719C593.35 9.78906 593.707 10.0469 593.941 10.3906C594.18 10.7344 594.299 11.1406 594.299 11.6094C594.299 12.3672 594.021 12.9746 593.467 13.4316C592.916 13.8887 592.186 14.1172 591.275 14.1172C590.424 14.1172 589.727 13.8926 589.184 13.4434C588.645 12.9941 588.375 12.4004 588.375 11.6621H590.068C590.068 11.9824 590.188 12.2441 590.426 12.4473C590.668 12.6504 590.965 12.752 591.316 12.752C591.719 12.752 592.033 12.6465 592.26 12.4355C592.49 12.2207 592.605 11.9375 592.605 11.5859C592.605 10.7344 592.137 10.3086 591.199 10.3086H590.303V8.98438Z" fill="white"/>
</svg>
